<svg width="48" height="48" viewBox="0 0 48 48" fill="none" xmlns="http://www.w3.org/2000/svg">
<path d="M40.294 36L24 42.356L7.706 36L5 40.686L24 48L43 40.686L40.294 36ZM24 0C18.9609 0 14.1282 2.00178 10.565 5.56497C7.00178 9.12816 5 13.9609 5 19C5 24.0391 7.00178 28.8718 10.565 32.435C14.1282 35.9982 18.9609 38 24 38C29.0391 38 33.8718 35.9982 37.435 32.435C40.9982 28.8718 43 24.0391 43 19C43 13.9609 40.9982 9.12816 37.435 5.56497C33.8718 2.00178 29.0391 0 24 0ZM24 32.156C20.5161 32.156 17.1749 30.772 14.7114 28.3086C12.248 25.8451 10.864 22.5039 10.864 19.02C10.864 15.5361 12.248 12.1949 14.7114 9.73145C17.1749 7.26797 20.5161 5.884 24 5.884C27.4839 5.884 30.8251 7.26797 33.2886 9.73145C35.752 12.1949 37.136 15.5361 37.136 19.02C37.136 22.5039 35.752 25.8451 33.2886 28.3086C30.8251 30.772 27.4839 32.156 24 32.156Z" fill="#0C49B9"/>
</svg>
